<svg width="25" height="24" viewBox="0 0 25 24" fill="none" xmlns="http://www.w3.org/2000/svg">
<path fill-rule="evenodd" clip-rule="evenodd" d="M12.9309 10C14.0383 10 14.936 10.8954 14.936 12C14.936 13.1046 14.0383 14 12.9309 14C11.8235 14 10.9258 13.1046 10.9258 12C10.9258 10.8954 11.8235 10 12.9309 10Z" fill="white"/>
<path fill-rule="evenodd" clip-rule="evenodd" d="M12.9309 17C14.0383 17 14.936 17.8954 14.936 19C14.936 20.1046 14.0383 21 12.9309 21C11.8235 21 10.9258 20.1046 10.9258 19C10.9258 17.8954 11.8235 17 12.9309 17Z" fill="white"/>
<path fill-rule="evenodd" clip-rule="evenodd" d="M12.9309 3C14.0383 3 14.936 3.89543 14.936 5C14.936 6.10457 14.0383 7 12.9309 7C11.8235 7 10.9258 6.10457 10.9258 5C10.9258 3.89543 11.8235 3 12.9309 3Z" fill="white"/>
</svg>
