<svg width="25" height="24" viewBox="0 0 25 24" fill="none" xmlns="http://www.w3.org/2000/svg">
<path fill-rule="evenodd" clip-rule="evenodd" d="M6.68007 3.21808C9.10443 2.4115 11.5543 3.92625 12.2348 6.3787C12.6985 8.04984 12.2594 9.80216 11.1885 11.0021C11.4078 11.2854 11.6475 11.5578 11.9076 11.8175C12.1665 12.0759 12.438 12.3141 12.7203 12.5321C13.9228 11.4555 15.6849 11.0126 17.3651 11.4771C19.8234 12.1568 21.3392 14.6023 20.5318 17.0204C20.002 18.607 19.0142 19.5709 17.6968 19.8882C16.4727 20.183 15.1529 19.8696 13.9888 19.387C11.6443 18.4148 9.32922 16.4999 8.27192 15.4446C7.18967 14.3642 5.2782 12.0517 4.31242 9.71757C3.83283 8.55848 3.52403 7.24688 3.8203 6.03148C4.13904 4.72389 5.10055 3.74355 6.68007 3.21808ZM10.3024 6.91218C9.88861 5.42109 8.51389 4.71629 7.31451 5.11532C6.26023 5.46606 5.89456 5.98744 5.76864 6.504C5.62025 7.11276 5.74928 7.94774 6.16588 8.95458C6.99245 10.9523 8.70669 13.0491 9.69027 14.0309C10.65 14.9889 12.7499 16.7074 14.7585 17.5402C15.771 17.96 16.6122 18.092 17.2262 17.9441C17.7469 17.8187 18.2743 17.4518 18.6294 16.3884C19.0298 15.1893 18.322 13.8171 16.8296 13.4044C15.7188 13.0974 14.5769 13.4531 13.8973 14.1792C13.4584 14.648 12.6219 14.9152 11.9101 14.4197C11.4093 14.071 10.9337 13.6748 10.4893 13.2312C10.0442 12.7869 9.64679 12.3113 9.29717 11.8107C8.80349 11.1038 9.06691 10.2726 9.53352 9.83381C10.256 9.15443 10.6092 8.01787 10.3024 6.91218Z" fill="white"/>
</svg>
