<svg width="24" height="24" viewBox="0 0 24 24" fill="none" xmlns="http://www.w3.org/2000/svg">
<path fill-rule="evenodd" clip-rule="evenodd" d="M18.6204 2.6535C20.2045 2.20089 21.6691 3.66548 21.2165 5.24962L17.2169 19.2483C16.5502 21.5817 13.4332 22.02 12.1489 19.961L9.35147 15.4762C9.10942 15.0882 8.78184 14.7606 8.39379 14.5185L3.90903 11.7211C1.84999 10.4368 2.28829 7.31981 4.62169 6.65313L18.6204 2.6535ZM19.2225 4.57407C19.2122 4.57122 19.1968 4.56885 19.1698 4.57655L5.17114 8.57617C4.50445 8.76666 4.37922 9.65721 4.96752 10.0242L9.45228 12.8216C10.099 13.225 10.645 13.771 11.0484 14.4177L13.8458 18.9025C14.2128 19.4908 15.1033 19.3655 15.2938 18.6989L19.2935 4.70017C19.3012 4.67323 19.2988 4.65775 19.2959 4.64755C19.2922 4.63415 19.2835 4.61749 19.268 4.60199C19.2525 4.5865 19.2358 4.5778 19.2225 4.57407Z" fill="white"/>
<path fill-rule="evenodd" clip-rule="evenodd" d="M14.435 9.43498C14.8255 9.82551 14.8255 10.4587 14.435 10.8492L10.8995 14.3847C10.509 14.7753 9.8758 14.7753 9.48528 14.3847C9.09475 13.9942 9.09475 13.361 9.48528 12.9705L13.0208 9.43498C13.4113 9.04446 14.0445 9.04446 14.435 9.43498Z" fill="white"/>
</svg>
