<svg width="25" height="24" viewBox="0 0 25 24" fill="none" xmlns="http://www.w3.org/2000/svg">
<path fill-rule="evenodd" clip-rule="evenodd" d="M2.80347 8C2.80347 5.79086 4.5989 4 6.81367 4H13.8315C16.0463 4 17.8417 5.79086 17.8417 8V16C17.8417 18.2091 16.0463 20 13.8315 20H6.81367C4.5989 20 2.80347 18.2091 2.80347 16V8ZM6.81367 6C5.70628 6 4.80857 6.89543 4.80857 8V16C4.80857 17.1046 5.70628 18 6.81367 18H13.8315C14.9389 18 15.8366 17.1046 15.8366 16V8C15.8366 6.89543 14.9389 6 13.8315 6H6.81367Z" fill="white"/>
<path fill-rule="evenodd" clip-rule="evenodd" d="M19.5081 6.75878C20.7984 5.60044 22.8545 6.51382 22.8545 8.24536V15.7546C22.8545 17.4862 20.7984 18.3996 19.5081 17.2412L16.5004 14.5412C16.0779 14.1619 15.8367 13.6216 15.8367 13.0546V10.9454C15.8367 10.3784 16.0779 9.83806 16.5004 9.45878L19.5081 6.75878ZM20.8494 8.24537L17.8418 10.9454L17.8418 13.0546L20.8494 15.7546L20.8494 8.24537Z" fill="white"/>
</svg>
